HIERARCHY
ROOT Pelvis
{
	OFFSET 0.000000 0.000000 0.000000
	CHANNELS 6 Xposition Yposition Zposition Xrotation Yrotation Zrotation
	JOINT LeftUpLeg_virtual
	{
		OFFSET 0.000000 0.000000 0.000000
		CHANNELS 3 Xrotation Yrotation Zrotation
		JOINT LeftUpLeg
		{
			OFFSET 18.735201 -5.666702 -4.541200
			CHANNELS 3 Xrotation Yrotation Zrotation
			JOINT LeftLeg
			{
				OFFSET -0.021200 -31.938179 0.493100
				CHANNELS 3 Xrotation Yrotation Zrotation
				JOINT LeftFoot
				{
					OFFSET 0.021200 -31.938179 -4.336299
					CHANNELS 3 Xrotation Yrotation Zrotation
					JOINT LeftToeBase
					{
						OFFSET 0.943001 -26.722000 15.023500
						CHANNELS 3 Xrotation Yrotation Zrotation
						End Site
						{
							OFFSET 0 0 0
						}
					}
				}
			}
		}
	}
	JOINT RightUpLeg_virtual
	{
		OFFSET 0.000000 0.000000 0.000000
		CHANNELS 3 Xrotation Yrotation Zrotation
		JOINT RightUpLeg
		{
			OFFSET -18.735201 -5.666702 -4.541200
			CHANNELS 3 Xrotation Yrotation Zrotation
			JOINT RightLeg
			{
				OFFSET 0.018946 -31.938133 0.493100
				CHANNELS 3 Xrotation Yrotation Zrotation
				JOINT RightFoot
				{
					OFFSET -0.018946 -31.938126 -4.336299
					CHANNELS 3 Xrotation Yrotation Zrotation
					JOINT RightToeBase
					{
						OFFSET -0.943001 -26.722004 15.023500
						CHANNELS 3 Xrotation Yrotation Zrotation
						End Site
						{
							OFFSET 0 0 0
						}
					}
				}
			}
		}
	}
	JOINT Hips_virtual
	{
		OFFSET 0.000000 0.000000 0.000000
		CHANNELS 3 Xrotation Yrotation Zrotation
		JOINT Hips
		{
			OFFSET -0.000000 -0.000000 -0.000000
			CHANNELS 3 Xrotation Yrotation Zrotation
			JOINT Spine
			{
				OFFSET 0.000000 10.199997 -0.299500
				CHANNELS 3 Xrotation Yrotation Zrotation
				JOINT Spine1
				{
					OFFSET 0.000000 11.900002 -1.516600
					CHANNELS 3 Xrotation Yrotation Zrotation
					JOINT Spine2
					{
						OFFSET 0.000000 13.600006 -2.842500
						CHANNELS 3 Xrotation Yrotation Zrotation
						JOINT Neck_virtual
						{
							OFFSET 0.000000 0.000000 0.000000
							CHANNELS 3 Xrotation Yrotation Zrotation
							JOINT Neck
							{
								OFFSET 0.000000 9.624100 -2.890100
								CHANNELS 3 Xrotation Yrotation Zrotation
								JOINT Head
								{
									OFFSET 0.000000 14.068802 -1.351900
									CHANNELS 3 Xrotation Yrotation Zrotation
									End Site
									{
										OFFSET 0 0 0
									}
								}
							}
						}
						JOINT LeftShoulder_virtual
						{
							OFFSET 0.000000 0.000000 0.000000
							CHANNELS 3 Xrotation Yrotation Zrotation
							JOINT LeftShoulder
							{
								OFFSET 15.263000 10.923401 -0.547700
								CHANNELS 3 Xrotation Yrotation Zrotation
								JOINT LeftArm
								{
									OFFSET 25.438599 -2.830597 -13.032500
									CHANNELS 3 Xrotation Yrotation Zrotation
									JOINT LeftForeArm
									{
										OFFSET 29.960503 0.000000 0.000000
										CHANNELS 3 Xrotation Yrotation Zrotation
										JOINT LeftHand
										{
											OFFSET 27.849251 0.000000 0.000000
											CHANNELS 3 Xrotation Yrotation Zrotation
											End Site
											{
												OFFSET 0 0 0
											}
										}
									}
								}
							}
						}
						JOINT RightShoulder_virtual
						{
							OFFSET 0.000000 0.000000 0.000000
							CHANNELS 3 Xrotation Yrotation Zrotation
							JOINT RightShoulder
							{
								OFFSET -15.263000 10.923401 -0.547700
								CHANNELS 3 Xrotation Yrotation Zrotation
								JOINT RightArm
								{
									OFFSET -25.438599 -2.830597 -13.032500
									CHANNELS 3 Xrotation Yrotation Zrotation
									JOINT RightForeArm
									{
										OFFSET -29.960503 0.000000 0.000000
										CHANNELS 3 Xrotation Yrotation Zrotation
										JOINT RightHand
										{
											OFFSET -27.849251 0.000000 0.000000
											CHANNELS 3 Xrotation Yrotation Zrotation
											End Site
											{
												OFFSET 0 0 0
											}
										}
									}
								}
							}
						}
					}
				}
			}
		}
	}
}
MOTION
Frames: 5
Frame Time: 0.03333333
3.044310 89.048615 3.506676 0.000000 0.000000 0.000000 9.407183 -0.677658 1.903632 -32.864685 10.749849 20.518348 51.937271 11.216828 -9.663631 -1.092849 15.215423 -11.282988 0.000000 0.000000 0.000000 -2.550970 4.486021 4.504685 -35.321067 -3.471507 -10.941016 40.105156 -2.236836 -3.721965 -10.085665 -3.683363 3.592751 0.000000 0.000000 0.000000 7.319831 4.803706 0.582011 20.359288 8.799663 3.820319 14.758888 2.116776 -1.221611 7.382377 1.512704 -1.209300 0.000000 0.000000 0.000000 3.492558 2.311269 -2.732311 -0.358135 1.062992 -1.118227 0.000000 0.000000 0.000000 5.555463 2.297120 -2.551944 2.251976 -2.001542 -11.891056 -16.281103 -3.902919 -53.359620 -4.646556 -43.617168 -7.108283 0.000000 0.000000 0.000000 8.297444 2.635583 -1.472088 5.888275 15.175893 -1.379825 -15.683801 0.506501 46.556878 -6.082936 44.937324 7.856738 0.000000 0.000000 0.000000 
1.967941 89.848808 4.484375 0.000000 0.000000 0.000000 9.717234 -1.948431 2.200744 -32.141101 10.445683 20.494100 51.670074 12.567615 -10.941620 -1.500954 17.053606 -12.199360 0.000000 0.000000 0.000000 -2.734802 3.538265 4.554618 -35.710783 -3.730268 -10.990123 39.322898 -2.122970 -4.439693 -10.628013 -3.219038 2.336238 0.000000 0.000000 0.000000 6.190547 5.555211 -0.266114 23.649224 8.643547 4.917749 14.526786 2.589018 -1.483302 7.337067 1.955626 -1.018064 0.000000 0.000000 0.000000 3.666042 2.410304 -2.927867 -0.219612 1.177268 -1.040435 0.000000 0.000000 0.000000 5.413711 2.416104 -2.761521 2.994565 -1.448932 -12.647286 -17.657374 -1.147427 -53.369637 -4.272218 -41.196525 -6.705769 0.000000 0.000000 0.000000 8.306273 2.904071 -1.674784 6.578719 15.598948 -1.393263 -15.651385 -1.156984 47.040558 -7.738259 44.787569 9.630126 0.000000 0.000000 0.000000 
2.263138 89.802155 7.248137 0.000000 0.000000 0.000000 10.724377 -1.426072 2.308943 -30.511322 10.789179 20.493260 50.937935 13.591567 -11.744036 -2.318601 18.345010 -12.674049 0.000000 0.000000 0.000000 -2.372541 2.561056 5.190738 -35.212248 -4.222784 -10.388938 38.866693 -2.111705 -4.316147 -10.984478 -3.289734 2.487593 0.000000 0.000000 0.000000 7.128798 6.813885 0.485350 21.364208 8.243452 5.815758 15.588570 2.616522 -1.905534 6.969555 2.051151 -0.731125 0.000000 0.000000 0.000000 4.010500 2.528071 -2.918758 -0.267087 1.178116 -1.114710 0.000000 0.000000 0.000000 5.621760 2.865211 -2.703312 2.866569 -2.724760 -13.145017 -19.075332 -0.158220 -53.470218 -4.563872 -39.079648 -6.854033 0.000000 0.000000 0.000000 8.474176 3.223991 -1.864181 7.051126 15.753304 -2.113013 -16.932551 -1.806822 47.593940 -8.697742 41.230638 9.481614 0.000000 0.000000 0.000000 
2.559743 90.995438 9.747648 0.000000 0.000000 0.000000 11.565832 -0.953905 1.564930 -29.239497 11.357757 19.691440 49.711415 13.904917 -12.186683 -3.470462 18.763020 -13.182415 0.000000 0.000000 0.000000 -1.859543 1.792937 5.774880 -34.455132 -4.681656 -9.746710 37.406808 -2.211643 -4.432872 -12.037971 -3.410699 2.126467 0.000000 0.000000 0.000000 6.191174 8.891551 0.060998 21.364448 9.524304 5.950384 14.515219 3.014352 -1.121286 7.312408 2.515161 -0.938452 0.000000 0.000000 0.000000 3.521146 2.632340 -2.877304 -0.426750 1.245969 -1.089535 0.000000 0.000000 0.000000 6.244059 2.995178 -2.808227 2.895700 -1.340317 -12.562472 -19.183867 0.370525 -53.722443 -4.827838 -38.475248 -7.044466 0.000000 0.000000 0.000000 8.559219 3.455639 -1.998346 6.423886 15.715341 -1.263807 -18.800186 -3.669192 48.260915 -9.978881 42.216925 10.853815 0.000000 0.000000 0.000000 
3.938848 92.091515 10.766394 0.000000 0.000000 0.000000 12.572179 -1.869814 1.688709 -27.705032 11.367433 19.514136 48.764419 14.202374 -12.663397 -3.963752 19.288258 -13.828240 0.000000 0.000000 0.000000 -1.852914 -0.460194 5.756639 -34.545396 -5.284345 -9.828661 36.361352 -2.399254 -4.476945 -12.898187 -3.629822 1.886415 0.000000 0.000000 0.000000 8.028659 10.531838 -0.112715 19.771251 8.866831 8.446888 14.866192 3.661885 -0.840655 6.646576 2.598911 -0.204995 0.000000 0.000000 0.000000 3.475745 2.592539 -2.611676 -0.670396 1.165789 -0.911357 0.000000 0.000000 0.000000 6.522652 3.168004 -2.436711 3.093670 -0.644768 -11.330307 -17.867051 0.392651 -51.203906 -4.025531 -37.631487 -5.999877 0.000000 0.000000 0.000000 8.440918 3.662140 -1.673522 6.586100 16.787234 -0.661603 -18.827399 -4.771321 48.673362 -10.589793 41.880398 11.778391 0.000000 0.000000 0.000000 
